<?xml version="1.0" encoding="UTF-8" standalone="no"?>
<svg
   xmlns:dc="http://purl.org/dc/elements/1.1/"
   xmlns:cc="http://creativecommons.org/ns#"
   xmlns:rdf="http://www.w3.org/1999/02/22-rdf-syntax-ns#"
   xmlns:svg="http://www.w3.org/2000/svg"
   xmlns="http://www.w3.org/2000/svg"
   xmlns:sodipodi="http://sodipodi.sourceforge.net/DTD/sodipodi-0.dtd"
   xmlns:inkscape="http://www.inkscape.org/namespaces/inkscape"
   xml:space="preserve"
   width="1009.3336"
   height="594.62152"
   style="fill-rule:evenodd"
   viewBox="0 0 284.85639 167.81541"
   sodipodi:version="0.33beta"
   inkscape:version="0.48.4 r9939"
   sodipodi:docname="Bandeira_SaoJosedosCampos_SaoPaulo_Brasil_2.svg"
   id="svg559"
   version="1.1"><metadata
   id="metadata41" />
  <sodipodi:namedview
   id="namedview597"
   showgrid="false"
   inkscape:zoom="0.56539338"
   inkscape:cx="261.84939"
   inkscape:cy="168.06197"
   inkscape:window-width="1920"
   inkscape:window-height="1018"
   inkscape:window-x="-8"
   inkscape:window-y="-8"
   inkscape:window-maximized="1"
   inkscape:current-layer="g632"
   fit-margin-top="0"
   fit-margin-left="0"
   fit-margin-right="0"
   fit-margin-bottom="0" />
  <defs
   id="defs560">
    <style
   type="text/css"
   id="style561">.fil1 {fill:#0093DD}
    .fil2 {fill:#FFF500}
    .fil0 {fill:white}</style>
    <metadata
   id="CorelCorpID_0Corel-Layer" />
    <sodipodi:namedview
   id="base"
   pagecolor="#ffffff"
   bordercolor="#666666"
   borderopacity="1.0"
   inkscape:pageopacity="0.0"
   inkscape:pageshadow="2"
   inkscape:zoom="0.35000000"
   inkscape:cx="375.00000"
   inkscape:cy="520.00000"
   inkscape:document-units="px"
   inkscape:current-layer="layer1"
   inkscape:window-width="1024"
   inkscape:window-height="712"
   inkscape:window-x="-4"
   inkscape:window-y="-4" />
    <metadata
   id="metadata7">
      <rdf:RDF>
        <cc:Work
   rdf:about="">
          <dc:format>image/svg+xml</dc:format>
          <dc:type
   rdf:resource="http://purl.org/dc/dcmitype/StillImage" />
        </cc:Work>
      </rdf:RDF>
    </metadata>
    <sodipodi:namedview
   id="namedview590"
   pagecolor="#ffffff"
   bordercolor="#666666"
   borderopacity="1.0"
   inkscape:pageopacity="0.0"
   inkscape:pageshadow="2"
   inkscape:zoom="0.35000000"
   inkscape:cx="375.00000"
   inkscape:cy="520.00000"
   inkscape:document-units="px"
   inkscape:current-layer="layer1"
   inkscape:window-width="1024"
   inkscape:window-height="712"
   inkscape:window-x="-4"
   inkscape:window-y="-4" />
    <metadata
   id="metadata591">
      <rdf:RDF>
        <cc:Work
   rdf:about="">
          <dc:format>image/svg+xml</dc:format>
          <dc:type
   rdf:resource="http://purl.org/dc/dcmitype/StillImage" />
        </cc:Work>
      </rdf:RDF>
    </metadata>
    <sodipodi:namedview
   id="namedview593"
   pagecolor="#ffffff"
   bordercolor="#666666"
   borderopacity="1.0"
   inkscape:pageopacity="0.0"
   inkscape:pageshadow="2"
   inkscape:zoom="0.35000000"
   inkscape:cx="375.00000"
   inkscape:cy="520.00000"
   inkscape:document-units="px"
   inkscape:current-layer="layer1"
   inkscape:window-width="1024"
   inkscape:window-height="712"
   inkscape:window-x="-4"
   inkscape:window-y="-4" />
    <metadata
   id="metadata594">
      <rdf:RDF>
        <cc:Work
   rdf:about="">
          <dc:format>image/svg+xml</dc:format>
          <dc:type
   rdf:resource="http://purl.org/dc/dcmitype/StillImage" />
        </cc:Work>
      </rdf:RDF>
    </metadata>
  </defs>
  <g
   id="g632"
   transform="translate(0.0863,0.08752071)">
    <rect
   class="fil0"
   x="0.0019"
   y="0.00067685603"
   width="284.67999"
   height="167.63901"
   id="rect564"
   style="font-size:12px;fill:#ffffff;fill-opacity:1;stroke:#7f7f7f;stroke-width:0.17640001;stroke-opacity:1;stroke-dasharray:none" />
    <rect
   class="fil1"
   x="0.0019"
   y="0.00061237998"
   width="284.67999"
   height="12.8953"
   id="rect565"
   style="font-size:12px;fill:#00438a;fill-opacity:1;stroke:none" />
    <rect
   class="fil1"
   x="0.0019"
   y="25.791201"
   width="284.67999"
   height="12.8953"
   id="rect566"
   style="font-size:12px;fill:#00438a;fill-opacity:1;stroke:none" />
    <rect
   class="fil1"
   x="0.0019"
   y="51.581799"
   width="284.67999"
   height="12.8953"
   id="rect567"
   style="font-size:12px;fill:#00438a;fill-opacity:1;stroke:none" />
    <rect
   class="fil1"
   x="0.0019644799"
   y="77.372398"
   width="284.67999"
   height="12.8953"
   id="rect568"
   style="font-size:12px;fill:#00438a;fill-opacity:1;stroke:none" />
    <rect
   class="fil1"
   x="0.0019"
   y="103.163"
   width="284.67999"
   height="12.8953"
   id="rect569"
   style="font-size:12px;fill:#00438a;fill-opacity:1;stroke:none" />
    <rect
   class="fil1"
   x="0.0019"
   y="128.95399"
   width="284.67999"
   height="12.8953"
   id="rect570"
   style="font-size:12px;fill:#00438a;fill-opacity:1;stroke:none" />
    <rect
   class="fil1"
   x="0.0019"
   y="154.744"
   width="284.67999"
   height="12.8953"
   id="rect571"
   style="font-size:12px;fill:#00438a;fill-opacity:1;stroke:none" />
    <polygon
   class="fil2"
   points="98.4479,84.8901 110.105,86.7711 111.334,77.099 99.5779,76.0032 "
   id="polygon572"
   style="font-size:12px;fill:#ffba00;fill-opacity:1;stroke:none" />
    <circle
   class="fil2"
   cx="141.875"
   cy="84.262497"
   r="32.2803"
   id="circle573"
   style="font-size:12px;fill:#ffba00;fill-opacity:1;stroke:none"
   sodipodi:cx="141.875"
   sodipodi:cy="84.262497"
   sodipodi:rx="32.2803"
   sodipodi:ry="32.2803"
   d="m 174.1553,84.262497 c 0,17.827913 -14.45238,32.280303 -32.2803,32.280303 -17.82792,0 -32.2803,-14.45239 -32.2803,-32.280303 0,-17.827918 14.45238,-32.2803 32.2803,-32.2803 17.82792,0 32.2803,14.452382 32.2803,32.2803 z" />
    <polygon
   class="fil2"
   points="137.427,41.2028 137.032,53.0035 146.782,53.0035 146.386,41.2028 "
   id="polygon574"
   style="font-size:12px;fill:#ffba00;fill-opacity:1;stroke:none" />
    <polygon
   class="fil2"
   points="159.011,44.3198 153.257,54.63 161.925,59.0938 166.976,48.4213 "
   id="polygon575"
   style="font-size:12px;fill:#ffba00;fill-opacity:1;stroke:none" />
    <polygon
   class="fil2"
   points="175.766,57.1884 165.724,63.3988 171.127,71.5146 180.731,64.6453 "
   id="polygon576"
   style="font-size:12px;fill:#ffba00;fill-opacity:1;stroke:none" />
    <polygon
   class="fil2"
   points="184.286,75.8666 172.546,77.1313 173.915,86.7847 185.543,84.7363 "
   id="polygon577"
   style="font-size:12px;fill:#ffba00;fill-opacity:1;stroke:none" />
    <polygon
   class="fil2"
   points="183.753,96.1648 172.742,91.9034 169.53,101.109 180.802,104.623 "
   id="polygon578"
   style="font-size:12px;fill:#ffba00;fill-opacity:1;stroke:none" />
    <polygon
   class="fil2"
   points="173.54,114.187 165.937,105.153 158.692,111.678 166.883,120.182 "
   id="polygon579"
   style="font-size:12px;fill:#ffba00;fill-opacity:1;stroke:none" />
    <polygon
   class="fil2"
   points="155.924,125.463 153.644,113.878 144.146,116.081 147.198,127.487 "
   id="polygon580"
   style="font-size:12px;fill:#ffba00;fill-opacity:1;stroke:none" />
    <polygon
   class="fil2"
   points="136.767,127.515 139.658,116.067 130.13,113.998 128.013,125.614 "
   id="polygon581"
   style="font-size:12px;fill:#ffba00;fill-opacity:1;stroke:none" />
    <polygon
   class="fil2"
   points="117.146,120.34 125.328,111.827 118.076,105.31 110.483,114.352 "
   id="polygon582"
   style="font-size:12px;fill:#ffba00;fill-opacity:1;stroke:none" />
    <polygon
   class="fil2"
   points="103.397,105.099 114.554,101.234 111.055,92.1335 100.182,96.7371 "
   id="polygon583"
   style="font-size:12px;fill:#ffba00;fill-opacity:1;stroke:none" />
    <polygon
   class="fil2"
   points="103.043,64.8768 112.805,71.5188 118.017,63.2785 107.832,57.3054 "
   id="polygon584"
   style="font-size:12px;fill:#ffba00;fill-opacity:1;stroke:none" />
    <polygon
   class="fil2"
   points="117.189,48.0878 122.462,58.6524 131.035,54.0083 125.066,43.8207 "
   id="polygon585"
   style="font-size:12px;fill:#ffba00;fill-opacity:1;stroke:none" />
    <circle
   class="fil1"
   cx="141.875"
   cy="84.262497"
   r="27.891199"
   id="circle586"
   style="font-size:12px;fill:#00438a;fill-opacity:1;stroke:none"
   sodipodi:cx="141.875"
   sodipodi:cy="84.262497"
   sodipodi:rx="27.891199"
   sodipodi:ry="27.891199"
   d="m 169.7662,84.262497 c 0,15.403884 -12.48732,27.891203 -27.8912,27.891203 -15.40388,0 -27.8912,-12.487319 -27.8912,-27.891203 0,-15.403884 12.48732,-27.891199 27.8912,-27.891199 15.40388,0 27.8912,12.487315 27.8912,27.891199 z" />
    <polygon
   id="_17595800"
   class="fil0"
   points="146.492,63.8201 143.839,65.7624 144.855,68.9336 142.169,66.9853 139.457,68.9713 140.487,65.7646 137.806,63.8201 141.111,63.8201 142.182,60.6257 143.217,63.8201 "
   style="font-size:12px;fill:#ffffff;fill-opacity:1;stroke:none" />
    <polygon
   id="_17595800_0"
   class="fil0"
   points="134.75,94.741 132.098,96.6833 133.114,99.8545 130.428,97.9062 127.716,99.8922 128.745,96.6855 126.065,94.741 129.369,94.741 130.44,91.5465 131.476,94.741 "
   style="font-size:12px;fill:#ffffff;fill-opacity:1;stroke:none" />
    <polygon
   id="_17595800_1"
   class="fil0"
   points="158.021,94.741 155.368,96.6833 156.384,99.8545 153.698,97.9062 150.986,99.8922 152.015,96.6855 149.335,94.741 152.64,94.741 153.711,91.5465 154.746,94.741 "
   style="font-size:12px;fill:#ffffff;fill-opacity:1;stroke:none" />
    <path
   class="fil0"
   d="m 113.984,84.2625 c 2.1962,-0.423 2.3778,-2.3777 5.4684,-3.4108 2.8578,-0.0905 3.776,0.6283 5.8241,-0.1178 2.7863,-1.1155 1.7822,-2.5012 5.2652,-3.2202 2.856,0.2114 2.6137,0.966 5.1563,1.3918 3.8995,-0.9257 3.4203,-2.6187 6.625,-2.5277 4.6793,0.5349 2.8334,1.6684 6.7187,2.5541 2.9746,-0.3204 2.1341,-1.1084 5.0506,-1.2792 3.2577,-0.0869 2.4215,3.0166 6.7575,3.4952 4.2736,-1.6444 7.1922,0.5531 8.9143,2.7525 0.0303,2.053 -0.1495,4.3626 -0.6461,6.3673 -3.0375,-3.9995 -5.2477,-3.3873 -7.9433,-2.8678 -4.6865,-0.75 -3.2116,-2.8255 -7.4626,-3.2003 -2.5835,0.0126 -1.565,0.6924 -4.7857,0.9115 -5.0667,-1.2339 -2.4534,-1.7232 -6.4574,-2.4456 -3.6274,0.307 -3.4989,2.0982 -6.7647,2.4729 -3.1834,-0.4832 -2.3745,-1.0249 -5.0181,-1.0223 -3.2346,0.3387 -3.3564,2.5259 -6.0455,3.0974 -2.9405,0.0811 -2.819,-0.3523 -5.3032,-0.1691 -2.6423,1.1748 -2.027,1.9369 -4.7095,3.2028 -0.5861,-2.4168 -0.6911,-4.2086 -0.644,-5.9847 z"
   id="path596"
   style="font-size:12px;fill:#ffffff;fill-opacity:1;stroke:none"
   inkscape:connector-curvature="0" />
  </g>
</svg>